<?xml version="1.0" encoding="UTF-8"?>
<svg xmlns="http://www.w3.org/2000/svg"
     viewBox="514.295 148.042 237.806 827.353"
     role="img" aria-labelledby="title desc">
  <title id="title">SYSTEM / SOUND Master Mark</title>
  <desc id="desc">Final traced f-hole master mark.</desc>
  <path fill="currentColor" d=" M689.999207,957.021790   C682.089111,958.831604 674.264404,961.450989 666.252563,962.295471   C644.398865,963.599243 622.758362,963.884644 602.328125,954.251282   C598.494080,952.443481 594.641846,950.674255 590.244873,948.555542   C586.583801,946.067017 583.437012,943.963928 580.374878,941.744080   C568.461182,933.107422 559.211304,921.989441 550.806641,909.659485   C549.245483,906.603394 547.597534,903.959778 546.391235,901.127991   C542.822693,892.750732 538.913025,884.466736 536.107788,875.830811   C533.155884,866.743469 531.325439,857.291748 529.020142,847.597107   C528.953369,846.127502 528.871460,845.060059 528.841736,843.559021   C528.026794,836.421387 527.159607,829.717407 526.310364,822.586792   C526.300842,820.460266 526.273315,818.760254 526.325806,816.652100   C527.179260,805.839844 527.952759,795.435669 528.836304,784.607788   C530.019836,774.146118 531.093262,764.108154 532.404907,753.763428   C534.185181,742.821960 535.567444,732.160889 537.315308,721.560181   C538.999329,711.346558 541.061035,701.195129 542.985779,690.620361   C545.254517,679.807007 547.494324,669.389648 549.836731,658.585022   C551.944275,648.134827 553.949097,638.071899 556.125366,627.661255   C557.950867,617.271729 561.664185,607.407471 558.932983,596.588257   C557.535156,583.435608 549.541565,575.341553 538.686096,568.854309   C540.981567,567.763550 542.581909,567.003174 544.539978,566.182800   C553.403259,562.800476 560.896362,558.110596 566.420898,550.167969   C572.374146,543.511963 577.262451,536.626648 579.453369,527.894592   C579.865417,527.180603 580.043518,526.635681 580.487000,525.871704   C582.255371,522.477295 583.758423,519.301941 585.523926,515.909668   C587.542236,511.469116 589.298096,507.245636 591.311035,502.786987   C593.699951,497.365723 595.831787,492.179596 598.239624,486.776031   C600.394165,481.779358 602.272644,477.000122 604.427979,472.000122   C609.180725,461.200745 613.656738,450.622101 618.391479,439.819000   C625.113586,424.511780 631.668213,409.467163 637.992798,394.326416   C640.346008,388.693085 642.160828,382.834900 644.468506,376.844482   C648.527283,366.421722 652.338745,356.233704 656.397583,345.787323   C657.917603,341.759155 659.172119,337.983124 660.465881,334.220642   C666.191589,317.569672 670.350464,300.569550 671.977295,282.524780   C671.689087,269.677795 672.071777,257.220642 670.784912,244.938385   C669.688171,234.470505 664.607178,225.501221 655.038086,219.412537   C643.609314,211.404877 629.243164,210.663971 619.080505,219.707626   C616.430176,222.066116 613.620789,224.719284 615.433167,228.660934   C618.996033,236.409576 617.876160,244.174744 616.093750,252.364258   C612.188599,262.297394 605.211487,268.739288 595.550659,272.961243   C589.404785,273.264130 583.665527,274.016663 577.984009,273.708069   C573.977600,273.490448 570.049316,271.832550 566.013367,270.486877   C559.035522,265.474091 553.428101,259.639618 549.815186,251.648376   C545.257385,241.599884 545.856689,231.249893 545.911865,220.549103   C546.098022,217.969604 545.584839,215.529419 546.428833,213.723450   C550.472473,205.070679 554.883423,196.589630 559.445923,187.879578   C561.836304,185.220673 563.944702,182.729782 566.342834,180.050720   C581.796265,166.643143 599.686890,160.569458 619.554688,160.068680   C632.777039,159.735397 645.518982,162.522995 658.114624,167.355438   C669.468811,173.443161 679.351990,180.905014 687.903503,190.480850   C688.619507,191.539948 689.288818,192.288071 690.116028,193.332550   C695.588745,202.757675 700.903564,211.886444 706.218262,221.379349   C713.154968,238.251602 715.803650,255.704819 715.699951,273.354797   C715.618469,287.233521 713.494751,301.100189 712.167297,315.374329   C710.335571,325.500854 708.614807,335.225220 706.648560,345.234375   C704.164429,355.981720 701.925720,366.444244 699.480957,377.208038   C696.841675,388.003448 694.408630,398.497650 691.803345,409.335999   C690.754272,413.453064 689.877441,417.225922 688.732666,421.256775   C687.235901,427.649872 686.007141,433.784973 684.531860,440.176788   C681.802368,450.606384 679.319458,460.779266 676.606934,471.243530   C674.235352,482.021454 672.093445,492.507996 669.781738,503.344360   C668.132263,513.788696 666.652649,523.883179 665.104858,534.439697   C663.844299,547.564697 667.232605,558.341736 678.064209,566.412476   C680.007385,567.861145 681.778076,569.022522 684.149597,570.578003   C657.300110,581.447876 642.416443,602.236633 633.022339,628.295044   C630.817261,633.524231 628.667114,638.387939 626.829712,643.367065   C620.855042,659.557373 614.994873,675.789856 608.979614,692.359985   C605.590393,702.474609 602.312195,712.235413 598.872986,722.327759   C593.567566,743.447571 588.423279,764.235779 583.154907,785.417725   C581.990173,795.879578 580.949463,805.947754 579.754578,816.399597   C578.174988,833.277893 578.806396,849.637390 582.724365,865.795593   C585.037048,875.333313 588.989624,883.992981 596.074097,891.400879   C604.676636,901.493286 614.313171,909.324280 628.053894,910.889954   C632.957092,911.486572 637.788513,912.473694 642.394836,911.835815   C651.807312,910.532410 659.742371,906.314026 663.934631,897.134705   C664.509338,895.876404 664.591003,893.890381 663.996277,892.689148   C661.669739,887.990051 658.980225,883.470581 656.345825,878.449219   C654.137024,867.727722 655.463867,857.772095 659.373840,847.839722   C660.097534,846.490173 660.581360,845.341736 661.343384,843.994324   C663.739685,841.530945 665.742798,839.144104 667.997925,837.025513   C674.162964,831.233704 682.162720,829.791321 690.453125,828.039917   C702.523499,827.461182 712.432922,832.192139 722.139893,838.324097   C725.430298,841.788391 728.568115,844.959106 731.801514,848.479980   C737.406433,858.138489 739.461914,868.392456 740.100830,879.472839   C738.422546,889.946106 736.805298,899.964111 735.074524,910.335999   C730.278809,918.772156 725.596497,926.854370 720.614868,935.086670   C712.296997,945.402710 701.544800,951.764282 689.999207,957.021790  z"/>
</svg>
