<svg xmlns="http://www.w3.org/2000/svg" width="1200" height="750" viewBox="0 0 1200 750" role="img" aria-labelledby="title desc"><title id="title">AI音声制作ワークフローのプレビュー</title><desc id="desc">声の設計、台本分割、音声生成、編集、SNS公開までをつなぐ制作フローの模式図。</desc><rect width="1200" height="750" fill="#0b0b0c"/><circle cx="1030" cy="90" r="190" fill="#7a1f2b" opacity=".1"/><g font-family="system-ui,-apple-system,'Noto Sans JP',sans-serif"><text x="64" y="70" fill="#c88a4a" font-size="18" font-weight="700" letter-spacing="4">AI AUDIO / CREATIVE WORKFLOW / UI</text><text x="64" y="130" fill="#f2ede3" font-size="40" font-weight="700">AI音声生成を、“一回試す”から“制作を続けられる流れ”へ</text><text x="64" y="170" fill="#aaa39a" font-size="20">声の設計・台本分割・生成・保存・試聴・SNS用動画変換までを接続。</text><g transform="translate(64 230)"><rect width="1072" height="380" rx="24" fill="#151519" stroke="#343039"/><g transform="translate(34 36)"><rect width="260" height="308" rx="18" fill="#202027"/><text x="24" y="38" fill="#c88a4a" font-size="16" font-weight="700">VOICE DESIGN</text><circle cx="130" cy="118" r="54" fill="#111114" stroke="#7a1f2b" stroke-width="3"/><path d="M110 120c12-34 28-34 40 0s28 34 40 0" transform="translate(-40)" fill="none" stroke="#f2ede3" stroke-width="5" stroke-linecap="round"/><g fill="#3a3540"><rect x="24" y="198" width="212" height="14" rx="7"/><rect x="24" y="230" width="172" height="14" rx="7"/><rect x="24" y="262" width="194" height="14" rx="7"/></g></g><path d="M316 190h64" stroke="#7a1f2b" stroke-width="3"/><path d="M372 181l14 9-14 9" fill="none" stroke="#7a1f2b" stroke-width="3"/><g transform="translate(394 36)"><rect width="314" height="308" rx="18" fill="#111114" stroke="#48424c"/><text x="24" y="38" fill="#c88a4a" font-size="16" font-weight="700">SCRIPT / GENERATE</text><rect x="24" y="60" width="266" height="74" rx="12" fill="#202027"/><rect x="40" y="78" width="198" height="10" rx="5" fill="#69636e"/><rect x="40" y="100" width="224" height="10" rx="5" fill="#69636e"/><g transform="translate(24 156)"><path d="M0 54h266" stroke="#343039" stroke-width="2"/><g fill="#c88a4a"><rect x="6" y="38" width="8" height="32" rx="4"/><rect x="22" y="24" width="8" height="60" rx="4"/><rect x="38" y="46" width="8" height="16" rx="4"/><rect x="54" y="14" width="8" height="80" rx="4"/><rect x="70" y="34" width="8" height="40" rx="4"/><rect x="86" y="26" width="8" height="56" rx="4"/><rect x="102" y="44" width="8" height="20" rx="4"/><rect x="118" y="8" width="8" height="92" rx="4"/><rect x="134" y="30" width="8" height="48" rx="4"/><rect x="150" y="22" width="8" height="64" rx="4"/><rect x="166" y="40" width="8" height="28" rx="4"/><rect x="182" y="16" width="8" height="76" rx="4"/><rect x="198" y="36" width="8" height="36" rx="4"/><rect x="214" y="28" width="8" height="52" rx="4"/><rect x="230" y="42" width="8" height="24" rx="4"/></g></g><text x="24" y="282" fill="#f2ede3" font-size="18">分割生成 → 保存 → 再生成</text></g><path d="M730 190h64" stroke="#7a1f2b" stroke-width="3"/><path d="M786 181l14 9-14 9" fill="none" stroke="#7a1f2b" stroke-width="3"/><g transform="translate(808 36)"><rect width="230" height="308" rx="18" fill="#202027"/><text x="22" y="38" fill="#c88a4a" font-size="16" font-weight="700">PUBLISH</text><rect x="22" y="60" width="186" height="124" rx="12" fill="#111114"/><circle cx="115" cy="122" r="34" fill="#7a1f2b"/><path d="M107 105l28 17-28 17z" fill="#f2ede3"/><rect x="22" y="204" width="186" height="14" rx="7" fill="#343039"/><rect x="22" y="236" width="146" height="14" rx="7" fill="#343039"/><text x="22" y="286" fill="#f2ede3" font-size="17">Edit → Video → SNS</text></g></g><text x="64" y="665" fill="#aaa39a" font-size="16">Work in progress · voice generation · reusable production flow</text></g></svg>