<svg xmlns="http://www.w3.org/2000/svg" viewBox="0 0 240 360" role="img" aria-labelledby="title desc">
  <title id="title">SYSTEM / SOUND candidate 02 reference</title>
  <desc id="desc">Candidate 02 retained as a comparison reference with a slimmer lower body.</desc>
  <path fill="#050505" d="M116 25C130 23 143 32 147 44C152 60 148 81 143 101C137 123 130 145 126 162C124 170 126 176 134 182L144 188L134 194C125 199 122 209 119 222C114 244 112 268 114 287C116 305 124 318 135 320C143 322 149 318 151 313C143 310 139 305 139 298C140 288 147 282 156 283C166 284 172 293 170 304C168 321 154 334 138 338C118 342 97 333 87 315C77 298 76 276 78 253C80 233 85 213 88 198C90 190 88 184 82 179L74 173L88 170C94 168 98 161 101 153C111 127 121 101 126 77C130 59 127 44 119 42C111 40 105 45 105 53C105 60 110 64 117 64C115 73 108 78 100 77C89 76 82 67 83 56C84 40 98 27 116 25Z"/>
</svg>
