<svg xmlns="http://www.w3.org/2000/svg" viewBox="0 0 240 360" role="img" aria-labelledby="title desc">
  <title id="title">SYSTEM / SOUND Formal Mark</title>
  <desc id="desc">Candidate 06 refined as the formal mark, with balanced rounded terminals, visible central notches, and an integrated red lower terminal.</desc>
  <path fill="#050505" d="M115 22C130 19 145 26 153 41C161 57 159 77 156 95C152 117 144 140 138 157C135 166 135 174 145 180L136 182C130 183 126 189 124 198C116 220 109 241 105 263C101 284 104 304 114 316C123 326 134 326 142 318C136 315 131 309 132 301C132 291 140 283 150 283C161 283 168 293 167 306C168 323 154 337 136 342C113 347 91 335 80 315C69 296 70 270 75 244C79 224 83 206 85 195C86 187 84 182 78 178L89 175C96 172 101 164 106 154C119 128 130 102 137 78C142 61 139 45 130 43C122 41 116 46 116 54C116 61 121 65 128 64C127 71 122 77 114 80C102 84 90 77 87 66C82 52 88 37 100 28C105 25 110 23 115 22Z"/>
  <path fill="#E33A2F" d="M142 318C138 326 132 336 126 341L136 342C151 338 162 329 166 317C157 322 149 322 142 318Z"/>
</svg>
