<svg xmlns="http://www.w3.org/2000/svg" viewBox="0 0 240 360" role="img" aria-labelledby="title desc">
  <title id="title">SYSTEM / SOUND Small Icon</title>
  <desc id="desc">Candidate 10 retained as a single-color angular small icon with enlarged notches.</desc>
  <path fill="#050505" d="M115 24L132 16L147 27C151 48 147 73 140 99L123 165L143 180L132 190C123 198 119 209 115 227C110 249 106 275 108 304L123 318L145 307L143 333L123 344L94 324C92 291 96 256 102 226L110 194L91 181L108 170L116 137C123 108 132 75 133 48L123 44L110 58L101 47Z"/>
</svg>
