<svg xmlns="http://www.w3.org/2000/svg" viewBox="0 0 420 600" role="img" aria-labelledby="title desc">
  <title id="title">SYSTEM / SOUND vertical logo</title>
  <desc id="desc">Formal Mark f-hole silhouette above a centered SYSTEM / SOUND wordmark.</desc>
  <g transform="translate(90 16)">
    <path fill="#050505" d="M115 22C130 19 145 26 153 41C161 57 159 77 156 95C152 117 144 140 138 157C135 166 135 174 145 180L136 182C130 183 126 189 124 198C116 220 109 241 105 263C101 284 104 304 114 316C123 326 134 326 142 318C136 315 131 309 132 301C132 291 140 283 150 283C161 283 168 293 167 306C168 323 154 337 136 342C113 347 91 335 80 315C69 296 70 270 75 244C79 224 83 206 85 195C86 187 84 182 78 178L89 175C96 172 101 164 106 154C119 128 130 102 137 78C142 61 139 45 130 43C122 41 116 46 116 54C116 61 121 65 128 64C127 71 122 77 114 80C102 84 90 77 87 66C82 52 88 37 100 28C105 25 110 23 115 22Z"/>
    <path fill="#7A1F2B" d="M145 325C141 331 137 337 132 341C142 341 154 335 161 325C155 327 150 327 145 325Z"/>
  </g>
  <text x="210" y="446" text-anchor="middle" fill="#0B0B0C" font-family="Inter,Arial,sans-serif" font-size="39" font-weight="700" letter-spacing="5">SYSTEM</text>
  <text x="210" y="494" text-anchor="middle" fill="#C87532" font-family="Inter,Arial,sans-serif" font-size="34">/</text>
  <text x="210" y="542" text-anchor="middle" fill="#0B0B0C" font-family="Inter,Arial,sans-serif" font-size="39" font-weight="700" letter-spacing="5">SOUND</text>
</svg>
