<svg xmlns="http://www.w3.org/2000/svg" viewBox="0 0 240 360" role="img" aria-labelledby="title desc">
  <title id="title">Concept A — Reference Trace</title>
  <desc id="desc">A close trace of the user-provided contrabass f-hole photograph, shown as a black cutout with a separate signal track.</desc>
  <rect width="240" height="360" rx="24" fill="#C87532"/>
  <path fill="#050505" d="M175.3 20L182.3 20.7L189 23.8L197.6 31.6L204.3 41.4L204 43.1L205.3 44.1L208 52.5L208 58.7L205 65.3L199.4 69.3L196.7 70L189.7 69.3L184.8 65.3L182.1 59.4L182.5 52.8L185.5 47.3L189.9 43.8L189.9 42.1L173.9 21.7L170.5 22.1L159.3 32.7L154.6 40L150.2 49.7L145.9 67.8L143.5 106.3L144.2 178.6L144.9 182.8L148.2 186.6L148.2 188L144.2 193.6L143.5 213.4L141.5 235.6L136.8 264.1L132.4 280.1L126.7 294.3L120.3 306.1L110.9 319.7L103.4 327.8L93.6 334.8L83.2 339.3L78.2 339.7L77.5 339L75.8 340L75.2 339.3L72.1 339.7L64.4 337.9L51.6 330.6L43.4 322.1L38 313.8L33.7 302.6L32.7 297.8L32 288.4L33 283.9L36 278.3L40.2 274.3L43.9 272.6L51.3 271.9L59.4 275.7L63.6 280.4L64.9 283.5L65.9 287.4L65.9 293.6L63.6 301.3L59.9 306.5L56.2 309.6L56.2 311.3L57 312.9L83.6 336.2L92.5 326.3L98.8 316.5L104.2 305.4L108.6 292.6L114.3 263L116.3 228.6L117.6 183.8L117.3 182.1L113.6 176.9L116.6 172.4L117.3 169.6L120.7 109.5L124.4 85.8L128.1 69.9L133.8 54.6L137.8 46.9L144.5 37.9L150.7 31.5L152.1 31.5L152.4 30.1L160.1 24.5L167.9 21L174.9 20.7Z"/>
  <path d="M175 30C158 35 149 56 146 84C142 113 143 145 142 171C141 191 141 220 136 253C131 283 111 318 84 333" fill="none" stroke="#F2EDE3" stroke-width="2.2" stroke-linecap="round" opacity=".82"/>
  <circle cx="175" cy="30" r="5" fill="#E33A2F"/>
</svg>
